<svg xmlns="http://www.w3.org/2000/svg" xmlns:xlink="http://www.w3.org/1999/xlink" width="24" height="24" viewBox="0 0 24 24">
  <defs>
    <clipPath id="clip-path">
      <rect width="24" height="24" fill="none"/>
    </clipPath>
  </defs>
  <g id="icons_like" data-name="icons/like" clip-path="url(#clip-path)">
    <rect id="bg" width="24" height="24" fill="none"/>
    <path id="path" d="M14.286,6.432A4.56,4.56,0,0,1,17.682,5C20.668,5,23,7.414,23,10.85c0,2.045-1.023,3.764-2.864,5.6-.409.409-1.636,1.514-1.677,1.555-.164.164-.368.327-.573.532-.245.2-.532.45-.777.655-.573.491-1.186.941-1.8,1.391a6.994,6.994,0,0,0-.573.45,2.423,2.423,0,0,0-.245.164.8.8,0,0,1-.941,0,2.423,2.423,0,0,0-.245-.164c-.164-.123-.368-.286-.573-.45-.614-.45-1.227-.941-1.8-1.391-.286-.245-.532-.45-.777-.655-.2-.164-.368-.368-.573-.532-.082-.041-1.309-1.145-1.718-1.555C5.982,14.614,5,12.9,5,10.85,5,7.414,7.332,5,10.318,5a4.56,4.56,0,0,1,3.4,1.432A1.89,1.89,0,0,1,14,6.718a1.89,1.89,0,0,1,.286-.286Zm.041,12.886c.573-.45,1.186-.9,1.718-1.35a5.95,5.95,0,0,0,.736-.655,6.292,6.292,0,0,0,.532-.491c.082-.082,1.309-1.186,1.677-1.555,1.555-1.555,2.373-2.9,2.373-4.418,0-2.536-1.636-4.214-3.682-4.214a3.223,3.223,0,0,0-2.25.941,3.738,3.738,0,0,0-.532.655c-.082.123-.123.245-.164.286a.829.829,0,0,1-1.514,0,3.175,3.175,0,0,0-.164-.286,4.131,4.131,0,0,0-.532-.655,3.055,3.055,0,0,0-2.209-.941c-2.045,0-3.682,1.677-3.682,4.214,0,1.514.818,2.864,2.373,4.459.368.368,1.6,1.473,1.677,1.555a6.292,6.292,0,0,0,.532.491c.245.2.491.409.736.655.532.45,1.145.9,1.718,1.35.123.082.2.164.327.245a1.1,1.1,0,0,1,.327-.286Z" transform="translate(-2 -1)" fill="#78849e"/>
  </g>
</svg>
